<svg width="720" height="314" viewBox="0 0 720 314" fill="none" xmlns="http://www.w3.org/2000/svg">
<path d="M345.471 299.6C340.906 317.071 316.329 317.689 310.891 300.469L275.305 187.766C270.069 171.184 246.697 170.928 241.099 187.39L220.09 249.165C215.174 263.62 195.625 265.775 187.679 252.738L150.335 191.473C143.533 180.313 127.48 179.894 120.105 190.683L103.828 214.495C97.2743 224.082 83.4929 225.046 75.668 216.466L5.13176 139.123C-1.56801 131.776 -1.04259 120.39 6.30521 113.691L13.408 107.217C20.7539 100.52 32.1373 101.046 38.8349 108.391L70.5291 143.148C78.3537 151.729 92.1358 150.765 98.6894 141.178L122.297 106.643C129.672 95.8556 145.722 96.2735 152.525 107.43L175.891 145.75C183.84 158.785 203.387 156.628 208.302 142.172L242.699 40.9933C248.296 24.53 271.669 24.785 276.905 41.3665L306.753 135.881C312.191 153.1 336.768 152.481 341.333 135.01L372.897 14.1934C377.319 -2.73468 400.851 -4.0395 407.118 12.2958L453.901 134.241C459.388 148.544 479.096 149.891 486.479 136.468L510.516 92.7656C516.905 81.1503 533.232 80.1915 540.936 90.9792L586.209 154.372C593.628 164.76 609.202 164.339 616.049 153.565L645.174 107.733C651.805 97.2975 666.74 96.5006 674.444 106.171L715.888 158.192C722.082 165.967 720.801 177.292 713.025 183.486L705.506 189.476C697.733 195.669 686.413 194.39 680.217 186.619L678.626 184.625C670.92 174.961 655.991 175.76 649.361 186.192L618.254 235.138C611.407 245.912 595.833 246.333 588.414 235.945L545.955 176.491C538.25 165.703 521.922 166.662 515.534 178.279L479.089 244.552C471.707 257.976 451.998 256.629 446.511 242.326L415.372 161.159C409.106 144.824 385.575 146.128 381.151 163.056L345.471 299.6Z" fill="url(#paint0_linear_6_77)" fill-opacity="0.2"/>
<defs>
<linearGradient id="paint0_linear_6_77" x1="360.052" y1="-40" x2="363.5" y2="333.5" gradientUnits="userSpaceOnUse">
<stop stop-color="#679BFF"/>
<stop offset="0.766413" stop-color="#3E5D99" stop-opacity="0"/>
</linearGradient>
</defs>
</svg>
